<svg id="Camada_1" data-name="Camada 1" xmlns="http://www.w3.org/2000/svg" viewBox="0 0 1080 1080"><defs><style>.cls-1{fill:#fff;}</style></defs><title>white</title><path class="cls-1" d="M203.86,718.43h4.33l6.42,25.85L209,746a44.29,44.29,0,0,0-14-17.13,26.56,26.56,0,0,0-16-5.23,22.88,22.88,0,0,0-9.49,1.89,14.91,14.91,0,0,0-6.3,4.89,10.56,10.56,0,0,0-2.1,6.12,10.28,10.28,0,0,0,1.62,5.46,14.4,14.4,0,0,0,4.93,4.65,49.21,49.21,0,0,0,10.83,4.23l15.68,4.64a76.58,76.58,0,0,1,8.38,3.25,33.47,33.47,0,0,1,8.56,5.08,18.81,18.81,0,0,1,4.81,6.56,20.24,20.24,0,0,1,1.74,8.39q0,10-8.75,17.47t-22.63,7.49a37,37,0,0,1-12.8-2.07,44.34,44.34,0,0,1-12.2-7.36l-2.76,8h-4.22l-5.58-30.11,5.59-1.14a44.83,44.83,0,0,0,8.14,14.18A35.29,35.29,0,0,0,173.71,794a28.54,28.54,0,0,0,12.53,3,23.43,23.43,0,0,0,15.15-5.23q5.41-4.39,5.41-10.34a11.46,11.46,0,0,0-3.91-9q-4-3.48-14.18-6.49l-15-4.33q-12.62-3.66-17.79-9.38a19,19,0,0,1-5.17-13.1,18.45,18.45,0,0,1,3.37-10.67q3.37-4.9,10.34-8.2A35.19,35.19,0,0,1,179.69,717a37.5,37.5,0,0,1,13.34,2.4,28.79,28.79,0,0,1,8.29,4.81Z"/><path class="cls-1" d="M278.74,786.77l3.85,3.13a51.82,51.82,0,0,1-8.5,8.29,28.51,28.51,0,0,1-7.78,4.3,27,27,0,0,1-8.6,1.23,29.38,29.38,0,0,1-15-3.61,29.07,29.07,0,0,1-10.88-10.82A31.38,31.38,0,0,1,228,773.54a33.49,33.49,0,0,1,3.67-16.23,27.17,27.17,0,0,1,10.25-10.61,29.46,29.46,0,0,1,15.24-3.88,28.55,28.55,0,0,1,11.18,2,20.66,20.66,0,0,1,8.05,6.06,25.74,25.74,0,0,1,4.81,9.26,33.85,33.85,0,0,1,1,7.91H239.67q-.18,3-.18,4.4A32.87,32.87,0,0,0,242.14,786a19.34,19.34,0,0,0,7,8.73,17.89,17.89,0,0,0,9.89,2.8,20,20,0,0,0,9.08-2.19Q272.49,793.14,278.74,786.77ZM271,762.49a23,23,0,0,0-2.55-8.17,11.71,11.71,0,0,0-4.69-4.21,14.69,14.69,0,0,0-6.82-1.56,16.39,16.39,0,0,0-7.09,1.56,15.22,15.22,0,0,0-5.5,4.33,24.75,24.75,0,0,0-3.82,8.05Z"/><path class="cls-1" d="M290.64,724.14v-5a37.22,37.22,0,0,0,15.93-5H311v74q0,4.69.6,5.89a5.07,5.07,0,0,0,2.28,2.46q1.5.78,5.77.78h1.92v5h-31v-5h3.13a8.67,8.67,0,0,0,4.42-.9,5,5,0,0,0,2.1-2.45q.63-1.55.63-6.21V724.14Z"/><path class="cls-1" d="M328,753v-5.11a38.39,38.39,0,0,0,7.9-1.49,40.19,40.19,0,0,0,7.72-3.56h4.46v10.1a65.48,65.48,0,0,1,10.7-7.27A26,26,0,0,1,370,742.83a19.86,19.86,0,0,1,7.18,1.35,17.35,17.35,0,0,1,5.65,3.34,16.1,16.1,0,0,1,3.64,5.41,43.92,43.92,0,0,1,11.69-7.84,28,28,0,0,1,10.91-2.25,19.35,19.35,0,0,1,9.35,2.19,14.2,14.2,0,0,1,5.89,5.5q1.83,3.31,1.83,9.68v27.89a36.94,36.94,0,0,0,.18,5.11,4.92,4.92,0,0,0,1.28,2.16,5.51,5.51,0,0,0,2.24,1.44,17.05,17.05,0,0,0,4.66.42h1.91v5H406.34v-5q5.17-.06,6.7-.75a4.54,4.54,0,0,0,2.28-2.25q.75-1.56.75-6.13V761.58q0-5-.9-7A7.33,7.33,0,0,0,412,751.4a11.69,11.69,0,0,0-5.75-1.29,20.54,20.54,0,0,0-9,2.28,33.94,33.94,0,0,0-9.88,7v28.67a23.4,23.4,0,0,0,.39,5.44,4.79,4.79,0,0,0,1.32,2.16,5,5,0,0,0,2.16,1.2,31.37,31.37,0,0,0,6,.33v5H367.64v-5h1.68a10.8,10.8,0,0,0,5-.84,5.74,5.74,0,0,0,2.31-2.58,17.21,17.21,0,0,0,.6-5.71v-25.6q0-5.65-.87-7.63a7.4,7.4,0,0,0-3.34-3.37,11.65,11.65,0,0,0-5.78-1.38,18,18,0,0,0-7.89,1.92,43.72,43.72,0,0,0-10.84,7.39v30.89a8.36,8.36,0,0,0,.75,4.06,5.28,5.28,0,0,0,2.37,2.07,10.41,10.41,0,0,0,4.45.78h2.22v5H328.15v-5h1.61q4.12,0,5.44-.66a5.4,5.4,0,0,0,2.75-2.89q.48-1.08.48-5.59V753Z"/><path class="cls-1" d="M487.18,767.47v-6.55q0-6.67-3.73-9.53t-10.54-2.85a19.37,19.37,0,0,0-5.9.81,10.79,10.79,0,0,0-4.07,2.22,8.79,8.79,0,0,0-2.26,3.22q-.3.66-1.45,5.11-1.38,5.41-5.59,5.41a5,5,0,0,1-3.88-1.59,6.08,6.08,0,0,1-1.47-4.3,12.65,12.65,0,0,1,2.95-7.78,21.3,21.3,0,0,1,9-6.31,37.28,37.28,0,0,1,14.27-2.49,33,33,0,0,1,13.16,2.37,16.57,16.57,0,0,1,8.05,6.81q1.8,3.06,1.8,11.17V786.3a41.76,41.76,0,0,0,.3,6.42,6.88,6.88,0,0,0,2.31,3.87,6.78,6.78,0,0,0,4.3,1.29,21.62,21.62,0,0,0,6.61-1.27v5.24a32.58,32.58,0,0,1-9,1.44,18.89,18.89,0,0,1-7.18-1.2,11.51,11.51,0,0,1-7.18-9,53.8,53.8,0,0,1-13,7.93,32.07,32.07,0,0,1-11.78,2.28q-8.29,0-13.46-4.51t-5.17-10.58a13.81,13.81,0,0,1,1.9-7,17.4,17.4,0,0,1,5.78-5.83q3.88-2.52,12.19-4.45A202.62,202.62,0,0,1,487.18,767.47Zm0,5.23q-14,2-17.26,2.82-6.56,1.5-9.38,3.31a11.91,11.91,0,0,0-4,3.88,8.66,8.66,0,0,0-1.2,4.42,8.53,8.53,0,0,0,1.35,4.54,9.39,9.39,0,0,0,3.82,3.46,11.33,11.33,0,0,0,5.23,1.26,25.37,25.37,0,0,0,8.84-1.86,61.66,61.66,0,0,0,12.63-7.27Z"/><path class="cls-1" d="M556.19,718.43h43.28q12.32,0,18.63,2.55a21.21,21.21,0,0,1,9.71,7.39,19,19,0,0,1,3.4,11.21,20.81,20.81,0,0,1-3.31,11.63,22.35,22.35,0,0,1-9.55,8q-6.24,2.92-16.54,3L624,789.3a51.4,51.4,0,0,0,3.55,4.15,15.82,15.82,0,0,0,4.42,2.82,13.45,13.45,0,0,0,5.2,1h1.5v5h-19.1l-30.83-40H577.94v25.85a27.87,27.87,0,0,0,.3,5.41,4.86,4.86,0,0,0,2.13,2.89q1.47.84,5.74.84h2.16v5h-32.1v-5h2.89a14.57,14.57,0,0,0,4.36-.42,4.76,4.76,0,0,0,2-1.47,6.24,6.24,0,0,0,1.23-2.67q.12-.66.18-6.07V731.71a13.71,13.71,0,0,0-.72-5.24,4.7,4.7,0,0,0-2-2.29,10.15,10.15,0,0,0-4.48-.7h-3.43ZM577.94,725v31.56h17.28q8.79,0,12.34-1.08a14.77,14.77,0,0,0,8-5.29,15.75,15.75,0,0,0,2.92-9.8,16.06,16.06,0,0,0-2.11-8.5,13.16,13.16,0,0,0-5.75-5.17Q607,725,599.73,725Z"/><path class="cls-1" d="M686.6,767.47v-6.55q0-6.67-3.73-9.53t-10.54-2.85a19.37,19.37,0,0,0-5.9.81,10.79,10.79,0,0,0-4.07,2.22,8.79,8.79,0,0,0-2.26,3.22q-.3.66-1.45,5.11-1.38,5.41-5.59,5.41a5,5,0,0,1-3.88-1.59,6.08,6.08,0,0,1-1.47-4.3,12.65,12.65,0,0,1,2.95-7.78,21.3,21.3,0,0,1,9-6.31,37.28,37.28,0,0,1,14.27-2.49,33,33,0,0,1,13.16,2.37,16.57,16.57,0,0,1,8.05,6.81q1.8,3.06,1.8,11.17V786.3a41.76,41.76,0,0,0,.3,6.42,6.88,6.88,0,0,0,2.31,3.87,6.78,6.78,0,0,0,4.3,1.29,21.62,21.62,0,0,0,6.61-1.27v5.24a32.58,32.58,0,0,1-9,1.44,18.89,18.89,0,0,1-7.18-1.2,11.51,11.51,0,0,1-7.18-9,53.8,53.8,0,0,1-13,7.93,32.07,32.07,0,0,1-11.78,2.28q-8.29,0-13.46-4.51t-5.17-10.58a13.81,13.81,0,0,1,1.9-7,17.4,17.4,0,0,1,5.78-5.83q3.88-2.52,12.19-4.45A202.62,202.62,0,0,1,686.6,767.47Zm0,5.23q-14,2-17.26,2.82-6.56,1.5-9.38,3.31a11.91,11.91,0,0,0-4,3.88,8.66,8.66,0,0,0-1.2,4.42,8.53,8.53,0,0,0,1.35,4.54,9.39,9.39,0,0,0,3.82,3.46,11.33,11.33,0,0,0,5.23,1.26,25.37,25.37,0,0,0,8.84-1.86,61.66,61.66,0,0,0,12.63-7.27Z"/><path class="cls-1" d="M714.56,753v-5.11a38.39,38.39,0,0,0,7.9-1.49,40.19,40.19,0,0,0,7.72-3.56h4.46v10.1a65.48,65.48,0,0,1,10.7-7.27,26,26,0,0,1,11.24-2.82,19.86,19.86,0,0,1,7.18,1.35,17.35,17.35,0,0,1,5.65,3.34,16.1,16.1,0,0,1,3.64,5.41,43.92,43.92,0,0,1,11.69-7.84,28,28,0,0,1,10.91-2.25A19.35,19.35,0,0,1,805,745a14.2,14.2,0,0,1,5.89,5.5q1.83,3.31,1.83,9.68v27.89a36.94,36.94,0,0,0,.18,5.11,4.92,4.92,0,0,0,1.28,2.16,5.51,5.51,0,0,0,2.24,1.44,17.05,17.05,0,0,0,4.66.42H823v5H792.88v-5q5.17-.06,6.7-.75a4.54,4.54,0,0,0,2.28-2.25q.75-1.56.75-6.13V761.58q0-5-.9-7a7.33,7.33,0,0,0-3.22-3.22,11.69,11.69,0,0,0-5.75-1.29,20.54,20.54,0,0,0-9,2.28,33.94,33.94,0,0,0-9.88,7v28.67a23.4,23.4,0,0,0,.39,5.44,4.79,4.79,0,0,0,1.32,2.16,5,5,0,0,0,2.16,1.2,31.37,31.37,0,0,0,6,.33v5H754.17v-5h1.68a10.8,10.8,0,0,0,5-.84,5.74,5.74,0,0,0,2.31-2.58,17.21,17.21,0,0,0,.6-5.71v-25.6q0-5.65-.87-7.63a7.4,7.4,0,0,0-3.34-3.37,11.65,11.65,0,0,0-5.78-1.38A18,18,0,0,0,745.9,752a43.72,43.72,0,0,0-10.84,7.39v30.89a8.36,8.36,0,0,0,.75,4.06,5.28,5.28,0,0,0,2.37,2.07,10.41,10.41,0,0,0,4.45.78h2.22v5H714.68v-5h1.61q4.12,0,5.44-.66a5.4,5.4,0,0,0,2.75-2.89q.48-1.08.48-5.59V753Z"/><path class="cls-1" d="M860.8,742.83a30.5,30.5,0,0,1,15.3,3.67,25.91,25.91,0,0,1,10.19,10.7,33.75,33.75,0,0,1,3.73,16,33.1,33.1,0,0,1-3.82,16A26.45,26.45,0,0,1,875.79,800a31.61,31.61,0,0,1-15.72,3.7q-14.55,0-21.85-9.08a33,33,0,0,1-7.3-21.34,32.66,32.66,0,0,1,3.79-15.9,26.76,26.76,0,0,1,10.61-10.76A31.15,31.15,0,0,1,860.8,742.83Zm-.48,5.83a14.86,14.86,0,0,0-11.6,5.41q-6,6.73-6,19.59,0,12.38,5.11,18.87a15.25,15.25,0,0,0,12.56,5.77,15.87,15.87,0,0,0,9.11-2.7q4-2.7,6.46-8.63a36,36,0,0,0,2.46-13.91,35.34,35.34,0,0,0-2.64-14,16.32,16.32,0,0,0-15.45-10.4Z"/><path class="cls-1" d="M940.08,744.27h4.22l5.4,18.39-5.41,1.8a27.72,27.72,0,0,0-9.11-11.63,20.11,20.11,0,0,0-11.87-4.24,11.85,11.85,0,0,0-7.51,2.25,6.52,6.52,0,0,0-2.89,5.2,6.3,6.3,0,0,0,2.1,4.75q2,2,9.2,4.63l11.72,4.15q9.92,3.55,13.52,7.57a13.75,13.75,0,0,1,3.55,9.26,15.25,15.25,0,0,1-2.64,8.44,18.31,18.31,0,0,1-7.66,6.46,26.34,26.34,0,0,1-11.51,2.4,26.82,26.82,0,0,1-17.31-5.78l-1.26,4.34h-4.28l-7.5-19.65,5.41-2.16q5.48,8.66,10.35,12.26a24,24,0,0,0,14.69,5.11,13,13,0,0,0,8.61-2.79q3.37-2.79,3.37-6.22a7.57,7.57,0,0,0-2.1-5.17q-2.16-2.28-8.29-4.45l-13.88-5q-9-3.25-12.44-7.09a12.77,12.77,0,0,1-3.49-8.84q0-6.07,5.68-10.73t14.46-4.66a26.35,26.35,0,0,1,8.17,1.18,23.42,23.42,0,0,1,7.09,3.89Z"/><path class="cls-1" d="M178.5,818.61c31-.68,62.06-1.08,93.09-1.5s62.06-.67,93.09-.91q93.09-.68,186.18-.67t186.18.66c62.06.47,124.12,1.14,186.18,2.42C861.17,819.9,799.11,820.56,737,821s-124.12.66-186.18.66-124.12-.21-186.18-.67q-46.55-.35-93.09-.91C240.56,819.7,209.53,819.29,178.5,818.61Z"/><path class="cls-1" d="M379.86,840.92h4.92l13,35a8.86,8.86,0,0,0,1.94,3.49,3.85,3.85,0,0,0,2.63.85h.66v2.52H388.13v-2.52q.72-.06,1.41-.06a3.88,3.88,0,0,0,1.89-.3,1.68,1.68,0,0,0,.87-1.44,14.12,14.12,0,0,0-.84-3.1l-2.77-8.11H373.51l-3.27,9.08a7,7,0,0,0-.51,2,1.79,1.79,0,0,0,.32,1.05,1.92,1.92,0,0,0,.86.68,4.89,4.89,0,0,0,1.74.23q.81,0,1.32,0v2.52H361.43v-2.52a6.58,6.58,0,0,0,2.51-.35,3.42,3.42,0,0,0,1.34-1.11,15.48,15.48,0,0,0,1.5-3.23Zm-5.29,23.44h12.95l-6.45-18Z"/><path class="cls-1" d="M406.14,843.44v-2.52h15q10.28,0,14.34,1.29a18.63,18.63,0,0,1,9.71,7.06,22.9,22.9,0,0,1,2.09,22.52,19.12,19.12,0,0,1-5.33,7,16.21,16.21,0,0,1-6.58,3.14,33.32,33.32,0,0,1-7.75.92H406.14v-2.52h1.74l.57,0a3.33,3.33,0,0,0,1.82-.45,2.5,2.5,0,0,0,1-1.2,9.93,9.93,0,0,0,.21-2.64V848a9.71,9.71,0,0,0-.3-3.09,2.39,2.39,0,0,0-1.35-1.3A19.42,19.42,0,0,0,406.14,843.44Zm10.91,36.18h9.09a34,34,0,0,0,4.5-.48,16,16,0,0,0,4.5-1.17,12.57,12.57,0,0,0,3.85-3.29,16.19,16.19,0,0,0,2.87-5.44,24,24,0,0,0,1-7.26,22,22,0,0,0-1-7,16.12,16.12,0,0,0-3-5.35,14.55,14.55,0,0,0-4.51-3.62,16.1,16.1,0,0,0-5.55-1.58q-1.66-.15-5.54-.15h-6.17Z"/><path class="cls-1" d="M452.51,840.92h15.3v2.52h-1.17a10,10,0,0,0-2,.12,1.76,1.76,0,0,0-.92.59,1.47,1.47,0,0,0-.32.92,7.18,7.18,0,0,0,.6,2.36l11.13,29,11.25-29a7.18,7.18,0,0,0,.6-2.33,1.41,1.41,0,0,0-.6-1.27,5.08,5.08,0,0,0-2.46-.39h-1.38v-2.52h13v2.52a6.55,6.55,0,0,0-2.48.3,3.38,3.38,0,0,0-1.31.94,12.39,12.39,0,0,0-1.41,2.76l-14.27,35.4h-4.25l-14.13-35.4a17,17,0,0,0-1-2.18,4.08,4.08,0,0,0-.95-1,3.68,3.68,0,0,0-1.25-.59,8,8,0,0,0-2-.2Z"/><path class="cls-1" d="M520.75,840.2A19.85,19.85,0,0,1,531.12,843a20.89,20.89,0,0,1,7.71,7.72,21.92,21.92,0,0,1,2.69,11q0,9.68-6,15.78a20.62,20.62,0,0,1-15.34,6.1q-10.41,0-16.48-7.33a21.68,21.68,0,0,1-5-14.31,22,22,0,0,1,2.8-11.1,20.21,20.21,0,0,1,7.94-7.77A22.85,22.85,0,0,1,520.75,840.2Zm0,3.25a14.71,14.71,0,0,0-8.07,2.15,15.09,15.09,0,0,0-5.41,6.33,23.44,23.44,0,0,0-2,10.31,22.35,22.35,0,0,0,2,9.93,15.11,15.11,0,0,0,5.38,6.24,13.75,13.75,0,0,0,7.59,2.16,13.18,13.18,0,0,0,7.41-2.12,15.48,15.48,0,0,0,5.33-6.67A23.78,23.78,0,0,0,535,861.65a24.93,24.93,0,0,0-2.11-10.34,12.17,12.17,0,0,0-12.2-7.87Z"/><path class="cls-1" d="M581.09,840.92h2.16l3.81,14-2.79.78a48.34,48.34,0,0,0-3.43-6.49,14.21,14.21,0,0,0-4.79-4.24,13,13,0,0,0-6.33-1.56,13.59,13.59,0,0,0-7.47,2.18,15.76,15.76,0,0,0-5.53,6.39,20.78,20.78,0,0,0-2.12,9.47,21.06,21.06,0,0,0,2.15,9.65,16,16,0,0,0,5.82,6.53,14.67,14.67,0,0,0,7.9,2.29,16.93,16.93,0,0,0,8.17-2.29,22.42,22.42,0,0,0,7.24-6.42l2.4,1.65a24.65,24.65,0,0,1-4,4.69,23.81,23.81,0,0,1-7.12,4.57,21.74,21.74,0,0,1-8.11,1.47,19.77,19.77,0,0,1-15.87-7.24,21.52,21.52,0,0,1-5-14.31,22,22,0,0,1,2.79-11,21,21,0,0,1,7.71-7.86,20.41,20.41,0,0,1,10.59-2.92,18.52,18.52,0,0,1,5.63.83,20.28,20.28,0,0,1,5.27,2.66Z"/><path class="cls-1" d="M608.8,840.92h4.92l13,35a8.86,8.86,0,0,0,1.94,3.49,3.85,3.85,0,0,0,2.63.85H632v2.52H617.07v-2.52q.72-.06,1.41-.06a3.88,3.88,0,0,0,1.89-.3,1.68,1.68,0,0,0,.87-1.44,14.12,14.12,0,0,0-.84-3.1l-2.77-8.11H602.45l-3.27,9.08a7,7,0,0,0-.51,2,1.79,1.79,0,0,0,.32,1.05,1.92,1.92,0,0,0,.86.68,4.89,4.89,0,0,0,1.74.23q.81,0,1.32,0v2.52H590.37v-2.52a6.58,6.58,0,0,0,2.51-.35,3.42,3.42,0,0,0,1.34-1.11,15.48,15.48,0,0,0,1.5-3.23Zm-5.29,23.44h12.95l-6.45-18Z"/><path class="cls-1" d="M668.48,840.92h2.16l3.81,14-2.79.78a48.34,48.34,0,0,0-3.43-6.49,14.21,14.21,0,0,0-4.79-4.24,13,13,0,0,0-6.33-1.56,13.59,13.59,0,0,0-7.47,2.18,15.76,15.76,0,0,0-5.53,6.39,20.78,20.78,0,0,0-2.12,9.47,21.06,21.06,0,0,0,2.15,9.65,16,16,0,0,0,5.82,6.53,14.67,14.67,0,0,0,7.9,2.29A16.93,16.93,0,0,0,666,877.6a22.42,22.42,0,0,0,7.24-6.42l2.4,1.65a24.65,24.65,0,0,1-4,4.69,23.81,23.81,0,0,1-7.12,4.57,21.74,21.74,0,0,1-8.11,1.47,19.77,19.77,0,0,1-15.87-7.24,21.52,21.52,0,0,1-5-14.31,22,22,0,0,1,2.79-11,21,21,0,0,1,7.71-7.86,20.41,20.41,0,0,1,10.59-2.92,18.52,18.52,0,0,1,5.63.83,20.28,20.28,0,0,1,5.27,2.66Z"/><path class="cls-1" d="M680.13,840.92h16v2.52h-1.23a5,5,0,0,0-2.52.48,2.81,2.81,0,0,0-1.14,1.38,10.81,10.81,0,0,0-.36,3.46v27a7.63,7.63,0,0,0,.39,2.9,2.59,2.59,0,0,0,1.1,1.25,5.74,5.74,0,0,0,2.54.39h1.23v2.52h-16v-2.52h1.32a5.58,5.58,0,0,0,2.51-.41,2.38,2.38,0,0,0,1.07-1.17,8.69,8.69,0,0,0,.33-3V848.13A9.64,9.64,0,0,0,685,845a2.24,2.24,0,0,0-1.07-1.18,6,6,0,0,0-2.51-.38h-1.32Z"/><path class="cls-1" d="M717.11,840.92H722l13,35a8.86,8.86,0,0,0,1.94,3.49,3.85,3.85,0,0,0,2.63.85h.66v2.52H725.38v-2.52q.72-.06,1.41-.06a3.88,3.88,0,0,0,1.89-.3,1.68,1.68,0,0,0,.87-1.44,14.12,14.12,0,0,0-.84-3.1l-2.77-8.11H710.76l-3.27,9.08a7,7,0,0,0-.51,2,1.79,1.79,0,0,0,.32,1.05,1.92,1.92,0,0,0,.86.68,4.89,4.89,0,0,0,1.74.23q.81,0,1.32,0v2.52H698.68v-2.52a6.58,6.58,0,0,0,2.51-.35,3.42,3.42,0,0,0,1.34-1.11,15.48,15.48,0,0,0,1.5-3.23Zm-5.29,23.44h12.95l-6.45-18Z"/><path class="cls-1" d="M489.39,437.83q-19.3-9.32-35.21-27.59t-25.52-44.44l-17.51,3.58,17.48,94.34h13.21l8.66-25q20.52,16.57,38.23,23.07a98.75,98.75,0,0,0,13.17,3.79V442.87A98.52,98.52,0,0,1,489.39,437.83Z"/><path class="cls-1" d="M621.68,363.76a58.94,58.94,0,0,0-15.06-20.54q-9.6-8.39-26.82-15.92t-26.26-10.18l-49.14-14.54q-23.56-7-33.92-13.25T455,274.76a32.22,32.22,0,0,1-5.09-17.11q0-9.78,6.58-19.17t19.75-15.32A71.67,71.67,0,0,1,506,217.24a83.21,83.21,0,0,1,50,16.38q27.46,19.59,44,53.67L617.53,282l-20.11-81H583.85l-7.93,18.08a90.14,90.14,0,0,0-26-15.06,117.46,117.46,0,0,0-41.8-7.53,110.23,110.23,0,0,0-47.83,10.36q-21.85,10.36-32.39,25.7A57.81,57.81,0,0,0,417.37,266q0,23.16,16.19,41.05t55.74,29.38L536.38,350q32,9.42,44.44,20.34,12.24,10.92,12.24,28.06,0,18.64-16.95,32.39a72.14,72.14,0,0,1-30.81,14.7v21.86q32.42-3.7,54.45-22.55,27.4-23.46,27.4-54.74A63.4,63.4,0,0,0,621.68,363.76Z"/><path class="cls-1" d="M726.64,627.87a42.11,42.11,0,0,1-16.29-3A49.55,49.55,0,0,1,696.51,616q-2.64-2.45-11.11-13l-69.53-84.75q32.28-.37,51.82-9.51t29.93-25Q708,467.82,708,447.29q0-20-10.64-35.12T667,389q-13.31-5.39-35.17-7.15a68.72,68.72,0,0,1,.49,8.18A66.85,66.85,0,0,1,631,403.17a50.54,50.54,0,0,1,12.48,3.73,41.23,41.23,0,0,1,18,16.19q6.6,10.83,6.6,26.64,0,18.64-9.15,30.69T634,497q-11.13,3.39-38.66,3.39H541.17V401.53H586.5c.08-1,.13-2.09.13-3.15A37.78,37.78,0,0,0,582.7,381H473v15.82h10.73q10,0,14,2.2a14.73,14.73,0,0,1,6.31,7.17q2.26,5,2.26,16.43V594.55q-.19,16.95-.56,19a19.56,19.56,0,0,1-3.86,8.38,14.92,14.92,0,0,1-6.21,4.61q-3.49,1.32-13.65,1.32h-9v15.82H573.56V627.87h-6.78q-13.37,0-18-2.64t-6.68-9q-.94-3.39-.94-16.95v-81h33.76l96.59,125.41h59.83V627.87Z"/><path class="cls-1" d="M620.65,268.68c10.75-1,21.5-1.79,32.25-2.55,5.38-.4,10.75-.74,16.13-1.11l16.13-1c2.69-.14,5.38,0,8.06,0s5.38,0,8.06,0h53V571.19H738.7c-1.83,0-3.66,0-5.48,0s-3.66.1-5.48,0-3.66-.22-5.48-.33l-5.48-.35q-5.48-.34-11-.72-11-.73-21.94-1.55l-5.48-.41-5.48-.44c-3.66-.29-7.31-.58-11-.9,3.66-.32,7.31-.61,11-.9l5.48-.44,5.48-.41q11-.81,21.94-1.55,5.48-.38,11-.72l5.48-.35c1.83-.11,3.66-.25,5.48-.33s3.66,0,5.48,0,3.66,0,5.48,0h11L745,566.58V268.68l4.62,4.62H701.28c-2.69,0-5.38,0-8.06,0s-5.38.17-8.06,0l-16.13-1c-5.38-.37-10.75-.71-16.13-1.11C642.15,270.46,631.4,269.64,620.65,268.68Z"/><path class="cls-1" d="M408.08,268.69c-4.67.44-9.33.83-14,1.21l-7,.55-7,.53-7,.52-7,.49c-4.67.33-9.33.63-14,.94l4.24-4.24.3,4.65c.11,1.55.19,3.1.2,4.65s0,3.1-.08,4.65-.05,3.1,0,4.65V566.58L352.07,562H426q2.31,0,4.62-.05c1.54,0,3.08-.08,4.62,0s3.08.17,4.62.26l4.62.3c6.16.39,12.32.83,18.48,1.25s12.32.89,18.48,1.37c3.08.23,6.16.5,9.24.74s6.16.5,9.24.78c-3.08.28-6.16.53-9.24.78s-6.16.51-9.24.74q-9.24.72-18.48,1.37c-6.16.43-12.32.86-18.48,1.25l-4.62.3c-1.54.09-3.08.22-4.62.26s-3.08,0-4.62,0-3.08-.06-4.62-.05H347.45V287.3q0-2.33,0-4.65c0-1.55-.09-3.1-.08-4.65s.09-3.1.2-4.65l.3-4.65.29-4.49,3.95.26c4.67.3,9.33.6,14,.94l7,.49,7,.52,7,.53,7,.55C398.74,267.86,403.41,268.25,408.08,268.69Z"/></svg>